<svg xmlns="http://www.w3.org/2000/svg" width="100" height="100" viewBox="0 0 100 100"><circle fill="#322D2B" cx="49.76" cy="49.76" r="49.76"/><circle fill="#fff" cx="49.76" cy="49.76" r="42.106"/><path fill-rule="evenodd" clip-rule="evenodd" fill="#322D2B" d="M64.528 44.759c-.653-6.796-6.312-12.129-13.278-12.129-5.391 0-10.006 3.2-12.135 7.791-.64-.204-1.308-.343-2.015-.343-3.702 0-6.703 3.002-6.703 6.703 0 .736.147 1.431.367 2.092-2.879 1.679-4.835 4.761-4.835 8.334 0 5.347 4.335 9.682 9.682 9.682v.001h26.81v-.001c6.171 0 11.17-5.001 11.17-11.172 0-5.448-3.902-9.972-9.063-10.958zm-2.107 19.15v.001h-26.81c-3.696-.001-6.703-3.008-6.703-6.704 0-2.383 1.255-4.536 3.357-5.76 2.042-1.174 2.182-1.407 1.325-3.513-.144-.433-.214-.81-.214-1.152 0-2.054 1.67-3.724 3.724-3.724 0 0 .978-.07 2.015.343 1.709.681 1.895.029 2.703-1.727 1.708-3.683 5.41-6.064 9.432-6.064 5.362 0 9.796 4.056 10.312 9.435.185 2.132.185 2.132 2.407 2.642 3.85.735 6.645 4.114 6.645 8.031 0 4.518-3.675 8.192-8.193 8.192z"/><path fill="#322D2B" d="M60.389 50.946l-2.069-2.759c-.081-.108-.178-.202-.277-.292v-3.299c0-.762-.618-1.38-1.38-1.38h-13.805c-.762 0-1.38.618-1.38 1.38v3.299c-.099.089-.195.182-.276.29l-2.069 2.76c-.268.356-.415.797-.415 1.243v.69c0 1.142.929 2.071 2.071 2.071v8.972c0 .762.618 1.38 1.38 1.38h15.184c.762 0 1.38-.618 1.38-1.38v-8.972c1.142 0 2.071-.929 2.071-2.071v-.69c-.001-.445-.148-.887-.415-1.242zm-3.727-6.35v2.761h-13.804v-2.761h13.804zm-10.909 8.973h-2.891l2.761-4.831h1.511l-1.381 4.831zm2.098-4.832h1.564v4.831h-2.944l1.38-4.831zm2.254 0h1.564l1.38 4.831h-2.944v-4.831zm2.282 0h1.511l2.761 4.831h-2.891l-1.381-4.831zm-12.289 4.141v-.69c0-.15.049-.295.138-.414l2.071-2.761c.13-.174.335-.276.552-.276h1.968l-2.76 4.831h-1.279c-.381.001-.69-.308-.69-.69zm12.423 11.043h-5.176v-6.902h5.176v6.902zm4.831 0h-4.141v-6.902c0-.381-.309-.69-.69-.69h-5.176c-.381 0-.69.309-.69.69v6.902h-4.486v-8.972h15.184v8.972zm2.071-11.043c0 .381-.309.69-.69.69h-1.279l-2.761-4.831h1.969c.217 0 .422.102.552.276l2.071 2.761c.09.119.138.264.138.414v.69z"/><path fill="#fff" d="M40.098 52.878v-.69c0-.15.049-.295.138-.414l2.071-2.761c.13-.174.335-.276.552-.276h1.968l-2.76 4.831h-1.279c-.381.001-.69-.308-.69-.69z"/><path fill="#F25B24" d="M45.753 53.569h-2.892l2.761-4.832h1.511z"/><path fill="#fff" d="M47.851 48.737h1.564v4.832h-2.944z"/><path fill="#F25B24" d="M50.105 48.737h1.564l1.38 4.832h-2.944z"/><path fill="#fff" d="M52.387 48.737h1.511l2.761 4.832h-2.892z"/><path fill="#F25B24" d="M59.423 52.878c0 .381-.309.69-.69.69h-1.279l-2.761-4.831h1.969c.217 0 .422.102.552.276l2.071 2.761c.09.119.138.264.138.414v.69zm-2.761-8.282v2.761h-13.804v-2.761z"/></svg>