<svg xmlns="http://www.w3.org/2000/svg" width="100" height="100" viewBox="0 0 100 100"><circle fill="#322D2B" cx="49.76" cy="49.76" r="49.76"/><circle fill="#fff" cx="49.76" cy="49.76" r="42.106"/><path fill="#F3A319" d="M44.409 36.397h20.999v15.622h-20.999z"/><path d="M71.234 44.617c-.209-.314-.562-.503-.939-.503h-1.129c-.624 0-1.129.505-1.129 1.129v6.775c0 .624.505 1.129 1.129 1.129h4.517c.624 0 1.129-.505 1.129-1.129v-1.694c0-.223-.066-.441-.19-.626l-3.388-5.081zm2.448 7.402h-4.517v-6.775h1.129l3.387 5.081v1.694zm5.077-3.009l-4.517-6.775c-.631-.945-1.685-1.508-2.818-1.508h-4.517v-2.258c0-1.868-1.52-3.387-3.387-3.387h-16.939c-1.868 0-3.387 1.52-3.387 3.387v12.421c0 1.868 1.519 3.387 3.387 3.387h.001v3.387c0 1.868 1.52 3.387 3.387 3.387h1.289c.505 1.943 2.258 3.387 4.357 3.387 2.097 0 3.851-1.445 4.356-3.387h5.966c.505 1.943 2.258 3.387 4.358 3.387 2.097 0 3.851-1.445 4.356-3.387h1.29c1.868 0 3.387-1.52 3.387-3.387v-6.775c0-.67-.197-1.321-.569-1.879zm-32.178 3.009c-.623 0-1.129-.505-1.129-1.129v-12.421c0-.624.506-1.129 1.129-1.129h16.939c.624 0 1.129.505 1.129 1.129v12.42c0 .624-.505 1.129-1.129 1.129h-16.939zm9.034 10.162c-1.248 0-2.258-1.011-2.258-2.258s1.01-2.258 2.258-2.258c1.246 0 2.258 1.011 2.258 2.258.001 1.247-1.012 2.258-2.258 2.258zm14.68 0c-1.248 0-2.258-1.011-2.258-2.258s1.01-2.258 2.258-2.258c1.246 0 2.258 1.011 2.258 2.258s-1.012 2.258-2.258 2.258zm6.774-4.517c0 .624-.505 1.129-1.129 1.129h-1.29c-.505-1.943-2.258-3.387-4.356-3.387-2.1 0-3.853 1.445-4.358 3.387h-5.966c-.505-1.943-2.258-3.387-4.356-3.387-2.1 0-3.853 1.445-4.357 3.387h-1.289c-.624 0-1.129-.505-1.129-1.129v-3.387h14.68c1.868 0 3.387-1.52 3.387-3.387v-7.904h4.517c.377 0 .73.189.939.503l4.517 6.775c.124.185.19.404.19.626v6.774z" fill="#211B1C"/><path fill="#322D2B" d="M25.601 46.034c-2.05 0-3.825-.973-4.851-2.042-.766-.797-.739-2.062.058-2.828.791-.759 2.046-.739 2.812.042.565.555 2.091 1.646 4.134-.114 4.005-3.454 8.375-1.51 10.127 0 .837.721.931 1.984.209 2.821-.721.836-1.983.93-2.82.208-.407-.337-2.616-1.973-4.904 0-1.612 1.391-3.262 1.913-4.765 1.913zm.001 6.783c-2.051 0-3.826-.973-4.853-2.042-.765-.797-.738-2.063.059-2.828.791-.76 2.046-.74 2.812.042.563.555 2.091 1.646 4.134-.114 4.007-3.456 8.375-1.51 10.127 0 .837.721.931 1.984.209 2.82-.721.838-1.983.93-2.82.209-.407-.337-2.616-1.972-4.904 0-1.612 1.391-3.262 1.913-4.764 1.913zm-.001 6.784c-2.05 0-3.825-.973-4.851-2.042-.766-.797-.739-2.062.058-2.828.791-.76 2.046-.74 2.812.042.565.555 2.091 1.645 4.134-.114 4.005-3.455 8.375-1.511 10.127 0 .837.721.931 1.984.209 2.821-.721.836-1.983.929-2.82.208-.407-.337-2.616-1.972-4.904 0-1.612 1.39-3.262 1.913-4.765 1.913z"/></svg>