<svg xmlns="http://www.w3.org/2000/svg" width="103" height="179.363" viewBox="0 -9.875 103 179.363" enable-background="new 0 -9.875 103 179.363"><path fill="#fff" d="M12.404 24.485h7.192v-17.083h-7.192v17.083z"/><path opacity=".6" fill="#fff" enable-background="new" d="M24.903 0c-1.951 1.268-3.732 2.773-5.302 4.481v17.091c.312-4.535 2.153-8.87 5.278-12.285l.024-.025v-9.262m-17.787 0v9.261l.024.025c3.125 3.415 4.965 7.75 5.278 12.285v-17.09c-1.571-1.708-3.352-3.213-5.302-4.481"/><path fill="#fff" d="M62.325 12.966h1.405v13.826h-1.405zm-4.673 1.218c-.386-.468-.863-.827-1.417-1.069-.543-.237-1.153-.357-1.812-.357-.525 0-1.04.084-1.532.249-.502.168-.964.429-1.373.776-.408.345-.758.782-1.041 1.298l-.063.119-.063-.119c-.283-.516-.633-.953-1.041-1.298-.409-.346-.871-.608-1.373-.776-.492-.165-1.007-.249-1.532-.249-.659 0-1.269.12-1.812.357-.451.196-.847.474-1.188.822v-.97h-1.405v13.826h1.404v-8.703c0-1.323.27-2.333.803-3.002.512-.642 1.231-.954 2.197-.954.429 0 .848.082 1.243.245.39.16.741.402 1.042.72.305.32.553.731.738 1.22.188.495.283 1.091.283 1.771v8.703h1.405v-8.703c0-.68.095-1.276.283-1.771.185-.489.433-.899.738-1.22.302-.317.653-.56 1.042-.72.396-.162.815-.245 1.244-.245.966 0 1.685.312 2.197.954.533.669.803 1.679.803 3.002v8.703h1.405v-8.703c0-.822-.101-1.567-.299-2.215-.204-.665-.499-1.234-.876-1.691zm14.77-1.425c-1.046 0-2.023.287-2.904.852-.428.274-.827.598-1.194.969v-7.58h-1.404v19.792h.651c.287 0 .522-.145.629-.388.049-.111.074-.229.073-.34l.009-.439c.3.279.624.513.972.701.766.413 1.669.623 2.683.623.983 0 1.866-.191 2.623-.57.756-.377 1.397-.9 1.907-1.556.5-.645.882-1.41 1.135-2.275.248-.847.374-1.772.374-2.747 0-2.327-.476-4.094-1.415-5.251-.965-1.189-2.358-1.791-4.139-1.791zm3.851 9.382c-.193.698-.486 1.311-.871 1.822-.376.5-.855.897-1.422 1.181-.568.285-1.255.429-2.042.429-.79 0-1.49-.161-2.079-.479-.55-.297-1.066-.818-1.534-1.55v-6.82c.516-.798 1.125-1.433 1.813-1.889.711-.471 1.459-.7 2.285-.7 1.376 0 2.382.431 3.074 1.319.713.914 1.075 2.377 1.075 4.348 0 .835-.101 1.622-.299 2.339zm12.811.883c-.564.802-1.209 1.439-1.922 1.896-.739.475-1.526.705-2.407.705-.579 0-1.079-.088-1.486-.262-.397-.169-.719-.408-.984-.731-.268-.327-.47-.735-.601-1.213-.139-.507-.21-1.096-.21-1.75v-8.703h-1.404v8.703c0 1.631.386 2.933 1.147 3.87.787.969 1.977 1.461 3.538 1.461.533 0 1.061-.075 1.569-.223.5-.146.984-.356 1.439-.625.454-.268.881-.599 1.27-.985l.082-.082.02.94c0 .444.306.765.728.765h.626v-13.824h-1.405v10.058zm3.983-10.057v1.374h7.882l-8.149 11.326-.042.069c-.083.115-.126.257-.126.421v.635h9.984v-1.375h-7.919l8.135-11.299.039-.066c.085-.114.129-.252.129-.398v-.687h-9.933zm-68.164-.767v22.8h7.097v-27.796c-1.092.466-2.147 1.018-3.148 1.666-1.454.942-2.78 2.062-3.949 3.33zm0-2.958c1.169-1.269 2.495-2.389 3.949-3.33 1.001-.648 2.056-1.2 3.148-1.666v-4.246h-7.097v9.242zm-24.903-4.996c1.092.466 2.147 1.018 3.148 1.666 1.454.941 2.78 2.061 3.949 3.33v-9.242h-7.097v4.246zm3.148 4.624c-1.001-.648-2.056-1.2-3.148-1.666v27.796h7.097v-22.8c-1.169-1.268-2.495-2.388-3.949-3.33z"/><g fill="#fff"><path d="M47.898 79.35h7.226v-17.163h-7.226v17.163z"/><path opacity=".6" enable-background="new" d="M60.455 54.75c-1.96 1.274-3.75 2.786-5.327 4.502v17.171c.313-4.556 2.163-8.912 5.303-12.343l.024-.025v-9.305m-17.87 0v9.305l.024.025c3.14 3.431 4.988 7.786 5.303 12.343v-17.17c-1.579-1.717-3.368-3.229-5.327-4.503"/><path d="M60.455 67.007v22.907h7.13v-27.926c-1.097.468-2.157 1.023-3.163 1.674-1.46.946-2.792 2.071-3.967 3.345zm0-2.971c1.175-1.275 2.507-2.4 3.968-3.346 1.006-.651 2.066-1.206 3.163-1.674v-4.266h-7.13v9.286zm-25.02-5.02c1.097.468 2.157 1.023 3.163 1.674 1.461.945 2.793 2.071 3.968 3.346v-9.286h-7.13v4.266zm3.163 4.646c-1.006-.651-2.066-1.206-3.163-1.674v27.927h7.13v-22.908c-1.174-1.274-2.506-2.399-3.967-3.345zm7.521 33.809h.74v7.282h-.74zm-2.461.642c-.203-.246-.455-.436-.746-.563-.286-.125-.607-.188-.954-.188-.277 0-.548.044-.807.131-.264.088-.508.226-.723.409-.215.182-.399.412-.548.684l-.033.063-.033-.063c-.149-.272-.333-.502-.548-.684-.215-.182-.459-.32-.723-.409-.259-.087-.53-.131-.807-.131-.347 0-.668.063-.954.188-.238.103-.446.25-.626.433v-.511h-.74v7.282h.739v-4.584c0-.697.142-1.229.423-1.581.27-.338.648-.502 1.157-.502.226 0 .447.043.655.129.205.084.39.212.549.379.161.169.291.385.389.643.099.261.149.575.149.933v4.584h.74v-4.584c0-.358.05-.672.149-.933.097-.258.228-.473.389-.643.159-.167.344-.295.549-.379.209-.085.429-.129.655-.129.509 0 .887.164 1.157.502.281.352.423.884.423 1.581v4.584h.74v-4.584c0-.433-.053-.825-.157-1.167-.11-.35-.266-.649-.464-.89zm7.779-.751c-.551 0-1.065.151-1.53.449-.225.144-.436.315-.629.51v-3.992h-.739v10.424h.343c.151 0 .275-.076.331-.204l.038-.179.005-.231c.158.147.329.27.512.369.403.218.879.328 1.413.328.518 0 .983-.101 1.382-.3.398-.199.736-.474 1.004-.82.263-.34.465-.743.598-1.198.131-.446.197-.933.197-1.447 0-1.226-.251-2.156-.745-2.766-.508-.626-1.242-.943-2.18-.943zm2.028 4.942c-.102.368-.256.69-.459.96-.198.263-.45.472-.749.622-.299.15-.661.226-1.076.226-.416 0-.785-.085-1.095-.252-.29-.156-.561-.431-.808-.816v-3.592c.272-.42.593-.755.955-.995.374-.248.768-.369 1.203-.369.725 0 1.255.227 1.619.695.376.481.566 1.252.566 2.29.002.439-.051.853-.156 1.231zm6.748.465c-.297.422-.637.758-1.012.999-.389.25-.804.371-1.268.371-.305 0-.568-.046-.783-.138-.209-.089-.379-.215-.518-.385-.141-.172-.248-.387-.317-.639-.073-.267-.111-.577-.111-.922v-4.584h-.739v4.584c0 .859.203 1.545.604 2.038.415.51 1.041.769 1.863.769.281 0 .559-.04.826-.117.263-.077.518-.188.758-.329.239-.141.464-.315.669-.519l.043-.043.011.495c0 .234.161.403.383.403h.33v-7.281h-.74c.001 0 .001 5.298.001 5.298zm2.098-5.297v.724h4.151l-4.292 5.965-.022.036c-.044.061-.066.135-.066.222v.334h5.258v-.724h-4.171l4.285-5.951.021-.035c.045-.06.068-.133.068-.21v-.362h-5.232z"/></g><g fill="#fff"><path d="M48.984 141.794h5.047v-11.987h-5.047v11.987z"/><path opacity=".6" enable-background="new" d="M57.755 124.613c-1.369.89-2.619 1.946-3.72 3.144v11.993c.219-3.182 1.511-6.224 3.704-8.621l.017-.018v-6.498m-12.483 0v6.499l.017.018c2.193 2.396 3.484 5.438 3.704 8.621v-11.992c-1.103-1.2-2.352-2.256-3.721-3.146"/><path d="M57.755 133.174v15.999h4.98v-19.505c-.766.327-1.507.714-2.209 1.169-1.021.661-1.951 1.447-2.771 2.337zm0-2.076c.82-.89 1.751-1.676 2.771-2.337.702-.455 1.443-.842 2.209-1.169v-2.979h-4.98v6.485zm-17.475-3.506c.766.327 1.507.714 2.209 1.169 1.02.66 1.951 1.446 2.771 2.337v-6.485h-4.98v2.979zm2.209 3.245c-.702-.455-1.443-.842-2.209-1.169v19.505h4.98v-15.999c-.82-.89-1.751-1.676-2.771-2.337zm5.253 23.613h.517v5.086h-.517zm-1.719.448c-.142-.172-.317-.304-.521-.393-.2-.087-.424-.131-.667-.131-.193 0-.383.031-.564.092-.185.062-.355.158-.505.285-.15.127-.279.288-.383.477l-.023.044-.023-.044c-.104-.19-.233-.351-.383-.477-.15-.127-.32-.224-.505-.285-.181-.061-.37-.092-.564-.092-.242 0-.467.044-.667.131-.166.072-.312.174-.437.302v-.357h-.517v5.086h.516v-3.201c0-.487.099-.858.295-1.104.188-.236.453-.351.808-.351.158 0 .312.03.457.09.143.059.273.148.383.265.112.118.203.269.271.449.069.182.104.401.104.651v3.201h.517v-3.201c0-.25.035-.469.104-.651.068-.18.159-.331.271-.449.111-.117.24-.206.383-.265.146-.06.3-.09.458-.09.355 0 .62.115.808.351.196.246.295.618.295 1.104v3.201h.517v-3.201c0-.302-.037-.576-.11-.815-.071-.244-.179-.453-.318-.622zm5.433-.524c-.385 0-.744.106-1.068.313-.157.101-.304.22-.439.356v-2.788h-.516v7.281h.239c.106 0 .192-.053.231-.143l.027-.125.003-.161c.11.103.23.189.358.258.282.152.614.229.987.229.362 0 .686-.07.965-.21.278-.139.514-.331.701-.572.184-.237.324-.519.418-.837.091-.312.138-.652.138-1.01 0-.856-.175-1.506-.521-1.932-.355-.437-.868-.659-1.523-.659zm1.417 3.452c-.071.257-.179.482-.32.67-.138.184-.315.33-.523.434-.209.105-.462.158-.751.158-.291 0-.548-.059-.765-.176-.202-.109-.392-.301-.564-.57v-2.509c.19-.294.414-.527.667-.695.262-.173.537-.258.841-.258.506 0 .876.159 1.131.485.262.336.395.874.395 1.599-.001.308-.038.598-.111.862zm4.712.324c-.207.295-.445.529-.707.697-.272.175-.561.259-.885.259-.213 0-.397-.032-.547-.096-.146-.062-.264-.15-.362-.269-.099-.12-.173-.27-.221-.446-.051-.186-.077-.403-.077-.644v-3.201h-.516v3.201c0 .6.142 1.079.422 1.424.289.356.727.537 1.301.537.196 0 .39-.028.577-.082.184-.054.362-.131.529-.23.167-.099.324-.22.467-.362l.03-.03.007.346c0 .163.113.281.268.281h.23v-5.085h-.517l.001 3.7zm1.465-3.699v.505h2.899l-2.998 4.166-.015.025-.046.155v.234h3.673v-.506h-2.913l2.992-4.156.014-.024.047-.146v-.253h-3.653z"/></g></svg>