<svg xmlns="http://www.w3.org/2000/svg" width="100" height="100" viewBox="0 0 100 100"><circle fill="#322D2B" cx="49.76" cy="49.76" r="49.76"/><circle fill="#fff" cx="49.76" cy="49.76" r="42.106"/><g clip-rule="evenodd"><path fill-rule="evenodd" fill="#F25B24" d="M20.43 38.765l-6.625 17.83 2.498 1.561 3.001.75 6.501-17.75z"/><path fill-rule="evenodd" fill="#DD4E20" d="M74.398 42.33c-.189-.519.077-1.093.597-1.282l2.818-1.028c.519-.189 1.093.077 1.282.597l5.485 15.031c.189.519-.077 1.093-.597 1.282l-2.818 1.028c-.519.189-1.093-.077-1.282-.597l-5.485-15.031z"/><path d="M46.81 47.553c-1.061-.736-3.825-1.741-7.824-3.321.513-.812.846-1.59 1.361-3.001 1.23-3.37-.142-7.235-2.314-8.028-1.534-.56-3.257.233-3.839 1.768-.711 1.884-2.488 4.939-6.245 5.445-.276.038-1.056.122-1.168.13l.034.06c-.338-.606-.903-1.181-1.605-1.437l-2.818-1.028c-1.554-.567-3.28.236-3.847 1.79l-5.485 15.031c-.567 1.554.236 3.28 1.79 3.847l2.818 1.028c1.118.408 2.299.074 3.098-.707l.04.027.203.141.039.027c.492.331 1.443.961 3.482 2.285.438.283 2.762 1.74 5.376 2.694l5.135 1.874c1.566.571 2.913.381 4.026-.583.017-.015.387-.358.772-.864.289-.381.56-.97.625-1.645 1.261-.326 1.968-1.255 2.429-1.86.762-.99.962-1.87.935-2.561.762-.329 1.545-.969 2.204-2.14.409-.726.563-1.57.447-2.362.75-.403 1.267-1.066 1.548-1.751l.083-.192.185-.466c.435-1.19.166-3.002-1.485-4.201zm-27.172 9.808c-.189.519-.763.786-1.282.597l-2.818-1.028c-.519-.189-.786-.763-.597-1.282l5.485-15.031c.189-.519.763-.786 1.282-.597l2.818 1.028c.519.189.786.763.597 1.282l-5.485 15.031zm26.544-5.712c-.189.457-.716 1.298-2.36.698l-1.879-.686c-.26-.095-.546.039-.641.298-.095.26.039.546.298.641l1.82.664s1.168 1.751.871 2.281c-.37.659-1.183 1.864-2.769 1.285l-2.232-.814c-.26-.095-.546.038-.641.298-.094.259.039.546.298.641l1.85.675c1.585.578 1.005 1.737.514 2.375-.645.839-1.149 1.651-3.146.922l-1.533-.559c-.26-.095-.546.038-.641.298-.094.259.039.546.298.641l1.473.538c1.028.375.721 1.365.487 1.675-.257.339-.498.571-.509.581-.471.408-1.041.55-2.009.196l-5.135-1.874c-2.581-.942-4.926-2.461-4.986-2.499-3.575-2.323-3.755-2.468-3.974-2.627 0 0-.746-.424-.492-1.117l4.727-12.977c.161-.44.587-.736 1.103-.707h.219c4.94-.211 7.668-3.631 8.875-6.817.17-.447.695-.811 1.282-.597.994.363 2.021 2.996 1.121 5.463-.813 2.227-1.042 2.58-2.67 4.616 9.394 3.428 9.279 3.539 10.029 4.059.92.669.698 1.552.591 1.846l-.239.583zm-27.864 2.037c-.778-.284-1.639.117-1.923.895s.117 1.639.895 1.923c.778.284 1.639-.117 1.923-.895s-.117-1.639-.895-1.923zm-.686 1.879c-.259-.094-.393-.382-.298-.641.094-.259.382-.393.641-.298.259.094.393.382.298.641-.094.258-.382.392-.641.298z" fill-rule="evenodd" fill="#211C1D"/><g fill-rule="evenodd"><path fill="#211C1D" d="M46.81 47.553c-1.061-.736-3.825-1.741-7.824-3.321.513-.812.846-1.59 1.361-3.001 1.23-3.37-.142-7.235-2.314-8.028-1.534-.56-3.257.233-3.839 1.768-.711 1.884-2.488 4.939-6.245 5.445-.276.038-1.056.122-1.168.13l.034.06c-.338-.606-.903-1.181-1.605-1.437l-2.818-1.028c-1.554-.567-3.28.236-3.847 1.79l-5.485 15.031c-.567 1.554.236 3.28 1.79 3.847l2.818 1.028c1.118.408 2.299.074 3.098-.707l.04.027.203.141.039.027c.492.331 1.443.961 3.482 2.285.438.283 2.762 1.74 5.376 2.694l5.135 1.874c1.566.571 2.913.381 4.026-.583.017-.015.387-.358.772-.864.289-.381.56-.97.625-1.645 1.261-.326 1.968-1.255 2.429-1.86.762-.99.962-1.87.935-2.561.762-.329 1.545-.969 2.204-2.14.409-.726.563-1.57.447-2.362.75-.403 1.267-1.066 1.548-1.751l.083-.192.185-.466c.435-1.19.166-3.002-1.485-4.201zm-27.172 9.808c-.189.519-.763.786-1.282.597l-2.818-1.028c-.519-.189-.786-.763-.597-1.282l5.485-15.031c.189-.519.763-.786 1.282-.597l2.818 1.028c.519.189.786.763.597 1.282l-5.485 15.031zm26.544-5.712c-.189.457-.716 1.298-2.36.698l-1.879-.686c-.26-.095-.546.039-.641.298-.095.26.039.546.298.641l1.82.664s1.168 1.751.871 2.281c-.37.659-1.183 1.864-2.769 1.285l-2.232-.814c-.26-.095-.546.038-.641.298-.094.259.039.546.298.641l1.85.675c1.585.578 1.005 1.737.514 2.375-.645.839-1.149 1.651-3.146.922l-1.533-.559c-.26-.095-.546.038-.641.298-.094.259.039.546.298.641l1.473.538c1.028.375.721 1.365.487 1.675-.257.339-.498.571-.509.581-.471.408-1.041.55-2.009.196l-5.135-1.874c-2.581-.942-4.926-2.461-4.986-2.499-3.575-2.323-3.755-2.468-3.974-2.627 0 0-.746-.424-.492-1.117l4.727-12.977c.161-.44.587-.736 1.103-.707h.219c4.94-.211 7.668-3.631 8.875-6.817.17-.447.695-.811 1.282-.597.994.363 2.021 2.996 1.121 5.463-.813 2.227-1.042 2.58-2.67 4.616 9.394 3.428 9.279 3.539 10.029 4.059.92.669.698 1.552.591 1.846l-.239.583z"/><path fill="#fff" d="M18.318 53.686c-.778-.284-1.639.117-1.923.895s.117 1.639.895 1.923c.778.284 1.639-.117 1.923-.895s-.117-1.639-.895-1.923zm-.686 1.879c-.259-.094-.393-.382-.298-.641.094-.259.382-.393.641-.298.259.094.393.382.298.641-.094.258-.382.392-.641.298z"/></g><g fill-rule="evenodd"><path fill="#211C1D" d="M51.223 51.752l.185.466.083.192c.28.686.798 1.348 1.548 1.751-.115.792.039 1.636.447 2.362.659 1.171 1.441 1.811 2.204 2.14-.026.691.174 1.571.935 2.561.461.605 1.168 1.534 2.429 1.86.065.675.336 1.264.625 1.645.384.506.755.849.772.864 1.113.964 2.46 1.154 4.026.583l5.135-1.874c2.614-.954 4.938-2.411 5.376-2.694 2.04-1.324 2.99-1.954 3.482-2.285l.039-.027.203-.141.04-.027c.799.781 1.98 1.115 3.098.707l2.818-1.028c1.554-.567 2.357-2.293 1.79-3.847l-5.485-15.031c-.567-1.554-2.293-2.357-3.847-1.79l-2.818 1.028c-.702.256-1.266.831-1.605 1.437l.034-.06c-.112-.008-.892-.092-1.168-.13-3.757-.507-5.533-3.561-6.245-5.445-.582-1.535-2.305-2.328-3.839-1.768-2.172.793-3.544 4.657-2.314 8.028.515 1.411.848 2.19 1.361 3.001-4 1.58-6.763 2.584-7.824 3.321-1.649 1.201-1.918 3.013-1.485 4.201zm23.175-9.422c-.189-.519.077-1.093.597-1.282l2.818-1.028c.519-.189 1.093.077 1.282.597l5.485 15.031c.189.519-.077 1.093-.597 1.282l-2.818 1.028c-.519.189-1.093-.077-1.282-.597l-5.485-15.031zm-21.296 8.736c-.107-.294-.33-1.177.591-1.846.75-.52.635-.631 10.029-4.059-1.628-2.036-1.857-2.389-2.67-4.616-.9-2.467.127-5.101 1.121-5.463.587-.214 1.113.149 1.282.597 1.206 3.186 3.935 6.606 8.875 6.817h.219c.516-.029.942.266 1.103.707l4.727 12.977c.253.694-.493 1.117-.493 1.117-.22.159-.4.304-3.974 2.627-.061.039-2.406 1.558-4.986 2.499l-5.135 1.874c-.969.354-1.538.212-2.009-.196-.011-.011-.253-.243-.509-.581-.234-.309-.541-1.3.487-1.675l1.473-.538c.26-.095.393-.382.298-.641-.095-.26-.382-.393-.641-.298l-1.533.559c-1.997.729-2.501-.083-3.146-.922-.492-.638-1.071-1.796.514-2.375l1.85-.675c.26-.095.393-.382.298-.641-.095-.261-.381-.393-.641-.298l-2.232.814c-1.586.579-2.399-.626-2.769-1.285-.297-.53-.539-1.767.871-2.281l1.82-.664c.26-.095.393-.381.298-.641-.095-.26-.381-.393-.641-.298l-1.879.686c-1.644.6-2.171-.241-2.36-.698l-.238-.583z"/><path fill="#fff" d="M80.308 55.609c.284.778 1.145 1.179 1.923.895.778-.284 1.179-1.145.895-1.923-.284-.778-1.145-1.179-1.923-.895-.778.284-1.179 1.145-.895 1.923zm.939-.343c-.094-.259.04-.547.298-.641.259-.094.547.04.641.298.094.259-.04.547-.298.641-.258.095-.546-.039-.641-.298z"/></g><path stroke="#211C1D" stroke-width="2" stroke-linecap="round" stroke-miterlimit="10" d="M72.652 52.232s-4.625.625-7.625-3.75m3.813 3.78s-2.041 2.221-2.166 3.596" fill="none"/></g></svg>