<svg xmlns="http://www.w3.org/2000/svg" width="100" height="100" viewBox="0 0 100 100"><circle fill="#322D2B" cx="49.76" cy="49.76" r="49.76"/><circle fill="#fff" cx="49.76" cy="49.76" r="42.106"/><path fill="#F3A319" d="M245.545 241.404h18.084l6.5-15.103-1.5-8.458-5.25-7.069-8.401-2.524-7.849 2.524-6.25 7.069-1.75 4.848v6.559z"/><path fill="#211C1D" d="M254.978 206.836c-9.55 0-17.292 7.742-17.292 17.292 0 6.337 5.798 13.052 7.909 18.95 3.149 8.798 2.8 14.062 9.383 14.062 6.681 0 6.233-5.241 9.383-14.025 2.118-5.91 7.909-12.699 7.909-18.987 0-9.55-7.742-17.292-17.292-17.292zm4.076 42.721l-7.796.975c-.278-.806-.577-1.749-.94-2.977l-.014-.049 9.728-1.216-.415 1.389c-.204.707-.39 1.321-.563 1.878zm-9.207-3.564c-.285-.946-.608-1.943-.967-3h12.208c-.192.565-.385 1.13-.553 1.664l-10.688 1.336zm5.131 8.004c-1.592 0-2.326-.183-3.14-1.965l6.663-.834c-.964 2.6-1.667 2.799-3.523 2.799zm7.344-14.148h-14.672c-.783-1.696-1.722-3.396-2.65-5.057-2.051-3.671-4.171-7.467-4.171-10.663 0-7.802 6.346-14.148 14.148-14.148s14.148 6.346 14.148 14.148c0 3.172-2.122 6.99-4.174 10.682-.919 1.656-1.851 3.349-2.629 5.038z"/><path d="M262.849 221.388l-1.676-.336c-.084-.243-.184-.478-.294-.705l.95-1.424c.29-.434.232-1.012-.137-1.38l-1.052-1.052c-.212-.212-.491-.32-.775-.32-.209 0-.421.06-.606.184l-1.424.949c-.229-.111-.464-.209-.706-.293l-.335-1.677c-.102-.512-.551-.88-1.073-.88h-1.488c-.521 0-.97.368-1.073.88l-.335 1.677c-.242.084-.477.183-.705.293l-1.424-.949c-.186-.123-.397-.184-.607-.184-.283 0-.562.109-.774.32l-1.052 1.052c-.369.369-.426.947-.137 1.38l.949 1.424c-.111.228-.209.463-.293.706l-1.677.335c-.512.102-.88.551-.88 1.073v1.488c0 .521.368.971.88 1.073l1.677.336c.084.243.183.478.293.705l-.949 1.424c-.29.434-.232 1.012.137 1.38l1.052 1.052c.212.212.491.32.774.32.21 0 .421-.06.607-.184l1.424-.949c.228.111.463.209.705.293l.335 1.677c.103.512.551.88 1.073.88h1.488c.521 0 .971-.368 1.073-.88l.336-1.677c.243-.084.478-.183.705-.293l1.424.949c.185.123.396.184.606.184.283 0 .563-.109.775-.32l1.052-1.052c.369-.369.426-.947.137-1.38l-.95-1.424c.111-.228.209-.463.294-.706l1.676-.335c.512-.102.88-.551.88-1.073v-1.488c0-.522-.368-.971-.88-1.073zm-1.891 2.896c-.38.076-.691.347-.818.713-.07.202-.153.398-.245.588-.17.349-.141.761.074 1.084l.95 1.424-1.052 1.052-1.424-.949c-.183-.122-.394-.184-.607-.184-.162 0-.326.036-.476.109-.19.092-.386.175-.589.245-.365.127-.637.439-.713.818l-.336 1.677h-1.488l-.335-1.677c-.076-.38-.347-.691-.713-.818-.202-.071-.398-.152-.589-.245-.151-.073-.314-.109-.476-.109-.213 0-.424.062-.607.184l-1.425.949-1.052-1.052.949-1.424c.215-.323.243-.734.075-1.083-.092-.19-.175-.386-.245-.588-.127-.366-.439-.637-.818-.713l-1.677-.336-.001-1.488 1.677-.335c.38-.076.691-.347.818-.713.07-.202.152-.398.245-.588.169-.349.141-.761-.074-1.084l-.949-1.424 1.052-1.052 1.425.949c.183.122.394.184.607.184.162 0 .325-.036.476-.109.189-.092.386-.175.588-.245.366-.127.638-.439.714-.818l.335-1.677 1.488-.001.335 1.677c.076.38.347.691.714.818.202.071.397.152.588.245.152.073.314.11.478.11.213 0 .424-.062.607-.184l1.424-.949 1.052 1.052-.95 1.424c-.215.323-.243.734-.075 1.083.092.19.175.386.246.588.127.366.438.637.818.713l1.676.336.001 1.488-1.678.335zm-5.98-4.908c-2.114 0-3.829 1.715-3.829 3.829s1.715 3.829 3.829 3.829 3.829-1.715 3.829-3.829-1.715-3.829-3.829-3.829zm0 7.179c-1.85 0-3.35-1.5-3.35-3.35s1.5-3.35 3.35-3.35c1.849 0 3.35 1.5 3.35 3.35 0 1.849-1.501 3.35-3.35 3.35zm0-5.538c-1.209 0-2.188.979-2.188 2.188s.979 2.188 2.188 2.188c1.208 0 2.188-.979 2.188-2.188s-.98-2.188-2.188-2.188zm0 3.829c-.906 0-1.641-.735-1.641-1.641s.735-1.641 1.641-1.641 1.641.735 1.641 1.641-.735 1.641-1.641 1.641z" fill="#fff"/><path fill="#F3A319" d="M40.328 59.175h18.084l6.5-15.103-1.5-8.458-5.25-7.068-8.402-2.525-7.848 2.525-6.25 7.068-1.75 4.849v6.558z"/><path fill="#211C1D" d="M49.76 24.608c-9.55 0-17.292 7.742-17.292 17.292 0 6.337 5.798 13.052 7.909 18.95 3.149 8.798 2.8 14.062 9.383 14.062 6.681 0 6.233-5.241 9.383-14.025 2.118-5.91 7.909-12.699 7.909-18.987 0-9.55-7.741-17.292-17.292-17.292zm4.076 42.721l-7.796.975c-.278-.806-.577-1.749-.94-2.977l-.014-.049 9.728-1.216-.415 1.389c-.204.707-.389 1.321-.563 1.878zm-9.206-3.565c-.285-.946-.608-1.943-.967-3h12.207c-.192.565-.385 1.13-.553 1.664l-10.687 1.336zm5.13 8.005c-1.592 0-2.326-.183-3.14-1.965l6.663-.834c-.964 2.599-1.667 2.799-3.523 2.799zm7.345-14.149h-14.672c-.783-1.696-1.722-3.396-2.65-5.057-2.051-3.671-4.171-7.467-4.171-10.663 0-7.802 6.346-14.148 14.148-14.148s14.148 6.346 14.148 14.148c0 3.172-2.122 6.99-4.174 10.682-.919 1.656-1.851 3.35-2.629 5.038z"/><path d="M57.632 39.16l-1.676-.336c-.084-.243-.184-.478-.294-.705l.95-1.424c.29-.434.232-1.012-.137-1.38l-1.052-1.052c-.212-.212-.491-.32-.775-.32-.209 0-.421.06-.606.184l-1.424.949c-.229-.111-.464-.209-.706-.293l-.335-1.677c-.102-.512-.551-.88-1.073-.88h-1.488c-.521 0-.97.368-1.073.88l-.335 1.677c-.242.084-.478.183-.705.293l-1.424-.949c-.186-.123-.397-.184-.607-.184-.283 0-.562.109-.774.32l-1.052 1.052c-.369.369-.426.947-.137 1.38l.949 1.424c-.111.228-.209.463-.293.706l-1.677.335c-.512.102-.88.551-.88 1.073v1.488c0 .521.368.971.88 1.073l1.677.336c.084.243.183.478.293.705l-.949 1.424c-.29.434-.232 1.012.137 1.38l1.052 1.052c.212.212.491.32.774.32.21 0 .421-.06.607-.184l1.424-.949c.228.111.463.209.705.293l.335 1.677c.103.512.551.88 1.073.88h1.488c.521 0 .971-.368 1.073-.88l.336-1.677c.243-.084.478-.183.705-.293l1.424.949c.185.123.396.184.606.184.283 0 .563-.109.775-.32l1.052-1.052c.369-.369.426-.947.137-1.38l-.95-1.424c.111-.228.209-.463.294-.706l1.676-.335c.512-.102.88-.551.88-1.073v-1.488c0-.522-.369-.971-.88-1.073zm-1.891 2.896c-.38.076-.691.347-.818.713-.071.202-.153.398-.245.588-.17.349-.141.761.074 1.084l.95 1.424-1.052 1.052-1.424-.949c-.183-.122-.394-.184-.607-.184-.162 0-.326.036-.476.109-.19.092-.386.175-.589.245-.365.127-.637.439-.713.818l-.336 1.677h-1.488l-.335-1.677c-.076-.38-.347-.691-.713-.818-.202-.071-.398-.152-.589-.245-.151-.073-.314-.11-.476-.11-.213 0-.424.062-.607.184l-1.425.949-1.052-1.052.949-1.424c.215-.323.243-.734.075-1.083-.092-.19-.175-.386-.245-.588-.127-.366-.439-.637-.818-.713l-1.677-.336-.001-1.488 1.677-.335c.38-.076.691-.347.818-.713.071-.202.152-.398.245-.588.169-.349.141-.761-.074-1.084l-.949-1.424 1.052-1.052 1.425.949c.183.122.394.184.607.184.162 0 .325-.036.476-.109.189-.092.386-.175.588-.245.366-.127.638-.439.714-.818l.335-1.677 1.488-.001.335 1.677c.076.38.347.691.714.818.202.071.397.152.588.245.152.073.314.11.478.11.213 0 .424-.062.607-.184l1.424-.949 1.052 1.052-.95 1.424c-.215.323-.243.734-.075 1.083.092.19.175.386.246.588.127.366.438.637.818.713l1.676.336.001 1.488-1.678.336zm-5.981-4.909c-2.114 0-3.829 1.715-3.829 3.829s1.715 3.829 3.829 3.829 3.829-1.715 3.829-3.829-1.714-3.829-3.829-3.829zm0 7.179c-1.85 0-3.35-1.5-3.35-3.35s1.5-3.35 3.35-3.35c1.849 0 3.35 1.5 3.35 3.35s-1.5 3.35-3.35 3.35zm0-5.538c-1.209 0-2.188.979-2.188 2.188s.979 2.188 2.188 2.188c1.208 0 2.188-.979 2.188-2.188s-.979-2.188-2.188-2.188zm0 3.829c-.906 0-1.641-.735-1.641-1.641s.735-1.641 1.641-1.641 1.641.735 1.641 1.641-.735 1.641-1.641 1.641z" fill="#fff"/></svg>